<svg xmlns="http://www.w3.org/2000/svg" width="299.928" height="299.928"><path style="fill:#781f19;fill-opacity:1;fill-rule:nonzero;stroke:none" d="M260.754 225.592c0-19.882-16.118-36-36-36s-36 16.118-36 36 16.118 36 36 36 36-16.118 36-36" transform="matrix(4.16567 0 0 -4.16567 -786.286 1089.703)"/><path style="fill:#d6a64f;fill-opacity:1;fill-rule:nonzero;stroke:none" d="M252.536 225.592c0-15.344-12.439-27.782-27.782-27.782s-27.782 12.438-27.782 27.782c0 15.343 12.439 27.781 27.782 27.781s27.781-12.438 27.781-27.781" transform="matrix(4.16567 0 0 -4.16567 -786.286 1089.703)"/><path style="fill:none;stroke:#fff;stroke-width:.75;stroke-linecap:butt;stroke-linejoin:miter;stroke-miterlimit:10;stroke-opacity:1;stroke-dasharray:none" d="M252.536 225.592c0-15.344-12.439-27.782-27.782-27.782s-27.782 12.438-27.782 27.782c0 15.343 12.439 27.781 27.782 27.781s27.781-12.438 27.781-27.781z" transform="matrix(4.16567 0 0 -4.16567 -786.286 1089.703)"/><path style="fill:#fff;fill-opacity:1;fill-rule:nonzero;stroke:none" d="m200.694 201.678 2.987 3.055.689-.674-2.987-3.054-.69.673M202.807 205.583l-3.322-2.688-.71.877.66 1.676c.19.48.448 1.007.699 1.462l-.008.01c-.403-.399-.839-.777-1.342-1.183l-.966-.782-.558.69 3.321 2.688.638-.789-.707-1.746c-.2-.489-.444-1.053-.706-1.526l.015-.02c.425.384.885.773 1.426 1.211l1 .81.56-.69M198.778 209.816c-.025.08-.093.202-.15.301-.432.768-1.137 1.03-2.022.523-.799-.457-.92-1.125-.505-1.852.104-.18.193-.298.25-.36l2.427 1.388zm-2.542-2.564a7.747 7.747 0 0 0-.728 1.08c-.406.71-.555 1.238-.487 1.744.066.55.39 1.056 1.05 1.434.71.406 1.347.427 1.852.249.548-.205 1.045-.717 1.46-1.444.25-.434.401-.763.49-.983l-3.637-2.08M193.328 212.798l3.933 1.67.377-.888-3.934-1.669-.376.887M194.453 217.07l-.794-.511c-.224-.139-.512-.303-.732-.434l.006-.018c.26.017.59.042.845.05l.943.007-.268.907zm1-.835 1.136.025.283-.96-4.467.043-.357 1.21 3.722 2.486.294-.998-.959-.625.348-1.18M195.586 219.97l-4.237-.553-.146 1.119 1.438 1.083c.414.31.91.623 1.362.88v.013a17.805 17.805 0 0 0-1.763-.306l-1.233-.161-.115.88 4.237.552.131-1.006-1.516-1.118c-.426-.312-.93-.665-1.4-.93l.004-.025a33.83 33.83 0 0 0 1.848.285l1.276.166.115-.88M190.885 227.507l4.269-.178-.04-.963-4.27.178.04.963M195.201 228.556l-4.22.673.179 1.115 1.685.63c.485.179 1.05.339 1.556.457l.003.012a17.58 17.58 0 0 0-1.777.207l-1.227.196.14.876 4.219-.673-.16-1.002-1.77-.641a15.142 15.142 0 0 0-1.608-.495l-.004-.025a33.459 33.459 0 0 0 1.853-.251l1.271-.203-.14-.876M195.137 233.554c.203.202.45.549.574.942.133.424.027.703-.245.788-.248.078-.46-.069-.783-.506-.454-.601-.969-.932-1.568-.744-.696.218-1.039.97-.739 1.925.146.466.34.77.532.976l.673-.436a1.998 1.998 0 0 1-.459-.787c-.125-.399.002-.651.208-.716.26-.081.445.107.817.574.492.637.972.853 1.552.67.684-.214 1.102-.916.751-2.035-.146-.466-.417-.886-.616-1.076l-.697.425M194.488 239.039l-.485-1.048-.736.34 1.38 2.981.736-.34-.49-1.06 3.141-1.453-.404-.874-3.142 1.454M195.817 243.304l3.675-2.181-.492-.829-3.675 2.181.492.829M197.846 244.89l-.687-.926-.652.483 1.955 2.638.652-.483-.694-.937 2.781-2.06-.574-.775-2.781 2.06M200.113 248.915l1.743-1.728c.526-.522.993-.582 1.336-.236.357.36.301.808-.239 1.344l-1.742 1.727.678.684 1.702-1.687c.937-.928.914-1.842.128-2.635-.758-.765-1.628-.787-2.591.168l-1.693 1.678.678.685M204.444 251.744l-.921-.695-.488.648 2.62 1.977.49-.647-.932-.703 2.084-2.763-.768-.58-2.085 2.763M210.302 253.563l-1.366-.778.502-.882 1.526.87.392-.689-2.363-1.346-2.116 3.712 2.286 1.302.392-.688-1.448-.826.44-.77 1.365.778.39-.683M215.367 254.455c.621.202.787.903.528 1.698-.237.73-.784 1.245-1.418 1.04-.633-.206-.788-.937-.541-1.697.249-.766.81-1.243 1.426-1.043l.005.002zm.196-.743c-1.2-.39-2.207.289-2.584 1.446-.396 1.218.092 2.383 1.285 2.772 1.248.405 2.234-.308 2.598-1.43.435-1.338-.106-2.4-1.293-2.786l-.006-.002M217.84 258.828l2.57.434.131-.782-1.62-.273.164-.963 1.513.256.13-.775-1.513-.256.287-1.694-.95-.16-.712 4.213M224.777 258.703l-1.153.019.012.811 3.284-.053-.013-.811-1.167.019-.056-3.462-.963.016.056 3.461M230.516 256.543l-1.556.224-.145-1.004 1.739-.25-.113-.784-2.692.387.607 4.229 2.605-.374-.114-.784-1.65.237-.126-.879 1.556-.223-.111-.779M234.501 253.768c-.186-.032-.604-.019-1.098.121-1.422.404-1.9 1.502-1.566 2.679.399 1.403 1.619 1.893 2.863 1.54.481-.137.82-.339.96-.47l-.403-.677c-.16.131-.402.279-.737.374-.732.208-1.432-.074-1.694-.995-.233-.824.107-1.48.93-1.714.288-.082.608-.113.82-.088l-.075-.77M238.096 256.795l-.684-1.5 1.448-.66.684 1.499.877-.4-1.774-3.887-.876.4.739 1.62-1.448.66-.739-1.62-.877.4 1.774 3.888.876-.4M239.72 251.25l2.372 3.554.938-.627-.13-1.795c-.04-.515-.13-1.095-.234-1.605l.01-.007c.267.5.57.99.93 1.529l.69 1.033.738-.492-2.372-3.554-.843.563.155 1.878c.046.525.112 1.137.22 1.666l-.02.014c-.29-.492-.615-1-1.002-1.58l-.714-1.07-.738.492M245.46 247.772c.477-.445 1.17-.251 1.742.36.523.561.708 1.29.222 1.744-.486.454-1.201.237-1.746-.347-.55-.588-.696-1.311-.223-1.752l.005-.005zm-.556-.53c-.922.86-.816 2.071.015 2.96.874.937 2.13 1.074 3.048.218.958-.896.811-2.103.007-2.965-.96-1.029-2.152-1.07-3.065-.218l-.004.005M250.467 247.746l.603-.752-2.7-2.167 1.065-1.325-.633-.508-1.667 2.076 3.332 2.676M250.789 241.186c.336-.56 1.055-.563 1.773-.133.657.395 1.037 1.044.695 1.615-.343.57-1.09.558-1.775.147-.69-.414-1.03-1.069-.696-1.623l.003-.006zm-.681-.357c-.649 1.082-.214 2.216.83 2.843 1.098.659 2.343.445 2.989-.63.676-1.126.202-2.246-.809-2.853-1.207-.724-2.364-.435-3.006.635l-.004.005M253.175 234.9c-.204.24-.541.713-.75 1.238-.288.724-.313 1.321-.11 1.824.205.498.643.904 1.227 1.136 1.322.517 2.458-.143 2.975-1.445.203-.513.26-.948.248-1.177l-.799-.1c.013.258-.021.552-.194.988-.297.748-.948 1.151-1.809.81-.824-.328-1.096-1.036-.804-1.773.08-.2.169-.355.226-.414l.838.332-.244.613.7.278.588-1.48-2.092-.83M253.53 232.767l1.706.393 2.155 1.882.25-1.081-.905-.65c-.273-.2-.473-.344-.722-.505l.002-.013c.28-.033.544-.076.87-.131l1.097-.19.243-1.056-2.743.812-1.736-.4-.217.939M256.058 224.376c.513.027 1.127.056 1.755.066v.014c-.548.13-1.16.297-1.662.454l-1.676.493-.012.754 1.64.483a22.55 22.55 0 0 0 1.668.414v.013c-.578.01-1.237.024-1.77.04l-1.624.057-.014.894 4.276-.204.02-1.287-1.425-.441a17.671 17.671 0 0 0-1.515-.386v-.025a25.08 25.08 0 0 0 1.54-.381l1.428-.428.02-1.267-4.269-.298-.014.939 1.634.096M255.703 219.872l.939.11c.261.027.593.048.847.069l.003.019c-.24.098-.547.222-.78.325l-.85.409-.159-.932zm-.53 1.19-1.031.478.167.987 3.994-2.004-.212-1.243-4.436-.596.175 1.025 1.136.141.207 1.212M253.79 216.607a1.778 1.778 0 0 1-.126-.311c-.289-.833-.018-1.534.949-1.862.87-.295 1.452.057 1.72.85.068.197.097.341.105.426l-2.647.897zm3.606-.205a7.734 7.734 0 0 0-.327-1.26c-.263-.776-.56-1.237-.985-1.521-.455-.315-1.049-.408-1.77-.164-.774.263-1.212.727-1.413 1.223-.208.546-.155 1.258.114 2.05.161.475.307.807.412 1.018l3.969-1.346M253.427 211.308l-.175-.338c-.222-.428-.14-.792.192-.964.344-.178.647-.036.85.359.109.208.158.332.174.403l-1.04.54zm2.067.005a7.566 7.566 0 0 0-.508-1.186c-.292-.563-.581-.912-.94-1.07-.3-.136-.629-.123-.978.058-.478.248-.632.764-.581 1.151l-.017.01c-.244-.21-.568-.227-.966-.141-.495.106-1.048.25-1.232.253l.455.878c.136 0 .495-.064 1.018-.2.534-.141.742-.042.931.31l.132.253-1.49.774.44.85 3.736-1.94M250.013 206.82l.89-.316c.247-.092.553-.22.79-.313l.012.015c-.172.195-.392.44-.556.637l-.582.742-.554-.765zm.05 1.303-.713.884.588.81 2.695-3.563-.74-1.022-4.242 1.428.61.842 1.081-.376.722.996M247.695 205.248c-.273-.09-.65-.29-.936-.587-.308-.32-.338-.616-.133-.814.187-.18.442-.144.926.102.676.336 1.284.4 1.736-.035.525-.505.496-1.33-.2-2.053-.338-.35-.648-.536-.91-.635l-.408.691c.174.062.475.202.761.5.29.301.29.583.135.732-.197.19-.446.104-.988-.148-.724-.35-1.25-.328-1.688.094-.516.497-.576 1.312.238 2.157.338.351.769.606 1.032.687l.435-.691M244.868 200.146a.632.632 0 1 0-1.264 0 .632.632 0 0 0 1.263 0M205.904 200.146a.632.632 0 1 0-1.263.001.632.632 0 0 0 1.263 0M209.647 208.583l10.091-1.802-1.081-1.26 9.91-.865-.992-.81 9.78-.43-12.932-1.282 1.622 1.44-10.271 1.045 1.711 1.261-7.838 2.703M208.484 199.81l.888-.521c.003.169.024.332.065.488.04.155.1.3.18.436a.803.803 0 0 0 .569.394c.254.05.5.006.738-.134.293-.172.535-.48.726-.927.192-.445.312-.976.36-1.592l-.182-.02c-.038.45-.15.85-.335 1.2a1.92 1.92 0 0 1-.724.788c-.165.097-.35.106-.557.028a.97.97 0 0 1-.495-.436 1.273 1.273 0 0 1-.156-.337l.35-.205.064-.547-.478.28-1.64-2.794-.32.613 1.455 2.478-.448.263-.06.544" transform="matrix(4.16567 0 0 -4.16567 -786.286 1089.703)"/><path style="fill:#fff;fill-opacity:1;fill-rule:nonzero;stroke:none" d="M210.795 197.489a2.829 2.829 0 0 0-.203-.547c.06-.133.13-.247.208-.343a.782.782 0 0 1 .256-.21.694.694 0 0 1 .318-.067.868.868 0 0 1 .339.077l.45.93-1.32.641a1.547 1.547 0 0 0-.048-.481zm.117-2.745.512 1.059a.317.317 0 0 0-.156.014c-.066.019-.147.05-.24.096a.96.96 0 0 0-.366.328c-.103.151-.181.33-.233.534a1.323 1.323 0 0 0-.403-.27.816.816 0 0 0-.419-.067c.09-.512.289-1.03.597-1.555l-.36-.153c-.525 1.508-.712 2.415-.562 2.724.04.085.097.143.172.178.074.035.142.038.204.007a.344.344 0 0 0 .163-.177.694.694 0 0 0 .057-.297.655.655 0 0 1 .59.37c.049.103.082.201.101.296a.72.72 0 0 1 .007.268l-.983.475-.106.542 3.597-1.743.106-.541-.497.241-1.413-2.916-.369.587" transform="matrix(4.16567 0 0 -4.16567 -786.286 1089.703)"/><path style="fill:#fff;fill-opacity:1;fill-rule:nonzero;stroke:none" d="m212.702 197.567.966-.377c-.025.167-.03.33-.016.49.015.159.05.312.107.458a.805.805 0 0 0 .498.475c.243.088.493.083.749-.017.316-.124.603-.39.863-.797.26-.408.463-.911.608-1.51l-.176-.048c-.11.436-.282.812-.52 1.128a1.922 1.922 0 0 1-.836.661c-.178.07-.363.05-.553-.06a.959.959 0 0 1-.418-.506 1.3 1.3 0 0 1-.1-.355l.374-.146.148-.534-.516.2-1.178-3.018-.412.556 1.044 2.675-.486.19-.146.535" transform="matrix(4.16567 0 0 -4.16567 -786.286 1089.703)"/><path style="fill:#fff;fill-opacity:1;fill-rule:nonzero;stroke:none" d="M214.616 193.221a.299.299 0 0 1 .177-.135.81.81 0 0 1 .51.024c.18.063.34.173.479.33-.324.098-.537.2-.638.307a.64.64 0 0 1-.357-.084.43.43 0 0 1-.2-.246.236.236 0 0 1 .029-.196zm3.047 2.652.19-.52-.634.19-.295-.983-1.373.412a.374.374 0 0 1-.311-.041.447.447 0 0 1-.203-.266.425.425 0 0 1 .068-.374.638.638 0 0 1 .358-.254l.432-.091a.642.642 0 0 0-.01.095.251.251 0 0 0 .01.081c.026.09.092.154.196.194a.507.507 0 0 0 .34.007.445.445 0 0 0 .28-.242.516.516 0 0 0 .029-.389.407.407 0 0 0-.17-.222.588.588 0 0 0-.31-.096l.555-1.086-.344-.127-.292.816a1.382 1.382 0 0 0-.573-.28 1.153 1.153 0 0 0-.586.014 1.282 1.282 0 0 0-.61.43c-.182.217-.251.399-.207.544a.643.643 0 0 0 .153.261c-.234.09-.412.225-.535.403-.123.178-.16.352-.108.522.018.06.066.13.142.207.078.077.177.156.299.237l.367-.571a.918.918 0 0 1-.207-.123.293.293 0 0 1-.101-.131c-.02-.066-.002-.134.05-.203a.427.427 0 0 1 .23-.15l.347.126a1.021 1.021 0 0 0-.134.848c.05.165.172.283.364.353.193.07.403.071.628.004l.81-.244.148.489-2.66.799-.188.52 3.855-1.158" transform="matrix(4.16567 0 0 -4.16567 -786.286 1089.703)"/><path style="fill:#fff;fill-opacity:1;fill-rule:nonzero;stroke:none" d="M217.97 195.117a.674.674 0 0 1 .358-.225l.111.615a.366.366 0 0 1-.01.186c-.02.055-.049.087-.088.094a.386.386 0 0 1-.302-.066.393.393 0 0 1-.166-.26.412.412 0 0 1 .098-.344zm1.162.491 1.772-.322.246-.496-.542.099-.578-3.187-.515.468.172.943-1.048.19-.065-.363a.333.333 0 0 0-.103-.193c-.053-.049-.108-.067-.167-.056-.173.03-.347.182-.519.452-.173.272-.242.501-.208.69.01.047.041.085.099.112a.305.305 0 0 0 .186.022l.289-.053.124.687c-.274.13-.484.306-.63.526-.146.222-.198.443-.157.665.024.14.103.25.234.328a.61.61 0 0 0 .435.075c.217-.04.413-.196.587-.47.173-.273.24-.526.198-.758l-.21-1.158 1.046-.19.25 1.375-.686.124-.21.49" transform="matrix(4.16567 0 0 -4.16567 -786.286 1089.703)"/><path style="fill:#fff;fill-opacity:1;fill-rule:nonzero;stroke:none" d="M220.03 197.095a.69.69 0 0 0 .513.134 1 1 0 0 0 .52-.224.983.983 0 0 0 .318-.474l-.122-.096a.781.781 0 0 1-.203.22.524.524 0 0 1-.24.095.598.598 0 0 1-.458-.128.608.608 0 0 1-.19-.728c.041-.114.11-.231.203-.351l-.16-.1a1.716 1.716 0 0 0-.364.588 1.324 1.324 0 0 0-.079.626c.023.18.11.326.262.438M221.418 192.858a.51.51 0 0 1 .33-.141c.18-.014.375.015.585.089.21.073.418.184.626.336-.116.16-.245.289-.385.382a.878.878 0 0 1-.423.157.947.947 0 0 1-.585-.13c-.165-.103-.254-.235-.266-.396a.365.365 0 0 1 .118-.296zm2.496 2.207.297-.467-.55.04-.242-3.231-.559.411.055.737a1.778 1.778 0 0 0-.46-.24 1.127 1.127 0 0 0-.448-.063c-.274.02-.54.168-.8.443-.26.276-.38.538-.362.788.015.21.118.385.307.523.19.14.413.198.667.18.226-.017.441-.095.647-.233.206-.139.376-.323.512-.555l.096 1.284-2.355.176-.298.466 3.493-.26" transform="matrix(4.16567 0 0 -4.16567 -786.286 1089.703)"/><path style="fill:#fff;fill-opacity:1;fill-rule:nonzero;stroke:none" d="m223.559 195.1 1.035-.017c-.082.148-.143.3-.185.455a1.688 1.688 0 0 0-.059.468.803.803 0 0 0 .301.62c.197.167.433.25.708.245.34-.006.7-.154 1.088-.447.385-.293.75-.695 1.096-1.205l-.15-.108c-.253.371-.548.664-.88.878-.333.213-.67.322-1.015.328-.192.002-.357-.08-.498-.249a.969.969 0 0 1-.217-.62 1.216 1.216 0 0 1 .031-.368l.403-.007.325-.449-.553.01-.052-3.238-.581.378.047 2.87-.522.007-.322.448" transform="matrix(4.16567 0 0 -4.16567 -786.286 1089.703)"/><path style="fill:#fff;fill-opacity:1;fill-rule:nonzero;stroke:none" d="m228.224 195.245.36-.421-.55-.037.215-3.232-.611.329-.108 1.616-1.139-.076a.32.32 0 0 1-.252-.157.541.541 0 0 1-.083-.345c.012-.201.09-.407.233-.616.141-.209.337-.405.584-.585l-.208-.198a5.52 5.52 0 0 0-.855.91c-.203.286-.312.535-.326.745-.013.21.039.396.159.557.12.16.27.246.45.258l1.399.094-.045.66-2.316-.153-.36.42 3.453.23M230.521 193.37a.354.354 0 0 1 .278-.053c.149.03.29.101.425.215.134.112.249.255.344.43a.755.755 0 0 1-.296.213.543.543 0 0 1-.318.036.845.845 0 0 1-.454-.235c-.117-.119-.161-.242-.135-.372a.355.355 0 0 1 .156-.235zm2.66 2.798.413-.366-1.73-.352.198-.975a.707.707 0 0 0 .491.367c.198.04.428-.065.691-.315.262-.25.422-.517.48-.8.026-.13.026-.276 0-.436a1.934 1.934 0 0 0-.15-.498l-.56.338c.112.168.19.33.236.49.046.16.056.302.03.427a.451.451 0 0 1-.179.283.38.38 0 0 1-.308.069.662.662 0 0 1-.31-.18 1.513 1.513 0 0 1-.29-.394l.316-1.55-.649.244-.16.793a.87.87 0 0 0-.563-.376c-.217-.045-.459.036-.726.243-.267.206-.425.431-.476.676a.565.565 0 0 0 .125.477c.118.149.275.243.473.283a.86.86 0 0 0 .486-.05c.173-.067.335-.172.49-.317l-.221 1.084-1.81-.369-.413.366 4.116.838M232.967 192.396h.006l.003-.006-.007-.001-.002.007" transform="matrix(4.16567 0 0 -4.16567 -786.286 1089.703)"/><path style="fill:#fff;fill-opacity:1;fill-rule:nonzero;stroke:none" d="m234.774 194.823 1.048.359-.453 1.322-1.048-.358.453-1.323zm1.216 2.363.457-.313-.52-.178 1.048-3.065-.677.157-.285.837-1.047-.359.118-.348a.323.323 0 0 0 .005-.22c-.023-.068-.063-.111-.118-.13-.177-.061-.412-.011-.705.148-.294.159-.472.331-.535.517a.198.198 0 0 0 .023.171c.034.06.084.1.15.122l.312.107-.452 1.323-.732-.251-.457.313 3.415 1.169M234.356 198.339c.079.17.207.293.385.364a1.004 1.004 0 0 0 1.073-.202l-.062-.144a.744.744 0 0 1-.282.093.524.524 0 0 1-.258-.032.604.604 0 0 1-.343-.336.608.608 0 0 1-.007-.48.668.668 0 0 1 .192-.249c.093-.079.21-.149.35-.208l-.093-.165a1.746 1.746 0 0 0-.603.338c-.169.149-.293.318-.37.51a.628.628 0 0 0 .017.51" transform="matrix(4.16567 0 0 -4.16567 -786.286 1089.703)"/><path style="fill:#fff;fill-opacity:1;fill-rule:nonzero;stroke:none" d="m239.285 198.709.487-.256-.497-.234 1.383-2.927-.691.078-.661 1.4-.934-.44c.206-.056.386-.14.54-.252.154-.113.267-.245.338-.396a.624.624 0 0 0 .013-.511.703.703 0 0 0-.364-.387c-.289-.136-.65-.1-1.08.105-.433.207-.845.541-1.237 1.003l.168.16c.277-.325.572-.56.882-.702.309-.142.57-.163.784-.062a.341.341 0 0 1 .186.219.414.414 0 0 1-.026.306c-.074.155-.22.293-.443.412a2.738 2.738 0 0 1-.813.262l1.733.819-.313.66-2.726-1.287-.487.255 3.758 1.775" transform="matrix(4.16567 0 0 -4.16567 -786.286 1089.703)"/><path style="fill:#fff;fill-opacity:1;fill-rule:nonzero;stroke:none" d="m240.32 199.363.51-.22-.478-.275 1.618-2.806-.695.024-1.435 2.487-.454-.261-.51.219 1.444.832M205.026 221.249c0-.932 2.172-1.407 2.74-1.552 2.428-.622 4.958-.921 7.454-1.094 2.312-.161 5.126.216 7.347.795-1.305 1.738-2.567 3.482-3.472 5.456-8.239-.543-14.069-2.2-14.069-3.605zm25.387 3.623c-.905-1.974-2.167-3.718-3.472-5.455 2.22-.58 5.035-.957 7.347-.796 2.496.173 5.026.472 7.454 1.094.568.145 2.74.62 2.74 1.552 0 1.406-5.83 3.062-14.07 3.605" transform="matrix(4.16567 0 0 -4.16567 -786.286 1089.703)"/><path style="fill:none;stroke:#1f1917;stroke-width:.75;stroke-linecap:butt;stroke-linejoin:miter;stroke-miterlimit:10;stroke-opacity:1;stroke-dasharray:none" d="M205.026 221.249c0-.932 2.172-1.407 2.74-1.552 2.428-.622 4.958-.921 7.454-1.094 2.312-.161 5.126.216 7.347.795-1.305 1.738-2.567 3.482-3.472 5.456-8.239-.543-14.069-2.2-14.069-3.605zm25.387 3.623c-.905-1.974-2.167-3.718-3.472-5.455 2.22-.58 5.035-.957 7.347-.796 2.496.173 5.026.472 7.454 1.094.568.145 2.74.62 2.74 1.552 0 1.406-5.83 3.062-14.07 3.605z" transform="matrix(4.16567 0 0 -4.16567 -786.286 1089.703)"/><path style="fill:#fff;fill-opacity:1;fill-rule:nonzero;stroke:none" d="M222.57 219.407c-1.296 1.728-2.55 3.495-3.449 5.462-.069.152-.14.302-.205.455-.453 1.076-.816 2.177-1.027 3.243-.949 4.791.563 9.653 3.214 13.635 1.548 2.326 3.197 4.695 3.618 7.523h.091c.421-2.828 2.07-5.197 3.618-7.523 2.65-3.982 4.163-8.844 3.215-13.635-.212-1.066-.575-2.167-1.028-3.243-.064-.152-.136-.301-.204-.452-.905-1.974-2.167-3.718-3.472-5.455-.814.212-1.552.452-2.151.703a16.487 16.487 0 0 0-2.155-.704s-.059-.014-.066-.008" transform="matrix(4.16567 0 0 -4.16567 -786.286 1089.703)"/><path style="fill:none;stroke:#1f1917;stroke-width:.75;stroke-linecap:butt;stroke-linejoin:miter;stroke-miterlimit:10;stroke-opacity:1;stroke-dasharray:none" d="M222.57 219.407c-1.296 1.728-2.55 3.495-3.449 5.462-.069.152-.14.302-.205.455-.453 1.076-.816 2.177-1.027 3.243-.949 4.791.563 9.653 3.214 13.635 1.548 2.326 3.197 4.695 3.618 7.523h.091c.421-2.828 2.07-5.197 3.618-7.523 2.65-3.982 4.163-8.844 3.215-13.635-.212-1.066-.575-2.167-1.028-3.243-.064-.152-.136-.301-.204-.452-.905-1.974-2.167-3.718-3.472-5.455-.814.212-1.552.452-2.151.703a16.487 16.487 0 0 0-2.155-.704s-.059-.014-.066-.008z" transform="matrix(4.16567 0 0 -4.16567 -786.286 1089.703)"/><path style="fill:#781f19;fill-opacity:1;fill-rule:nonzero;stroke:none" d="M222.566 219.399c-2.22-.58-5.034-.957-7.346-.796-2.496.173-5.026.472-7.454 1.094-.514.13-2.34.532-2.684 1.298 1.884-6.909 9.976-12.105 19.677-12.105 9.699 0 17.792 5.195 19.675 12.105h-.018c-.364-.754-2.165-1.15-2.674-1.28-2.428-.622-4.958-.92-7.454-1.094-2.313-.16-5.126.216-7.347.796-.814.212-1.552.452-2.151.703a16.487 16.487 0 0 0-2.156-.704s-.058-.014-.065-.008l-.003-.009z" transform="matrix(4.16567 0 0 -4.16567 -786.286 1089.703)"/><path style="fill:none;stroke:#1f1917;stroke-width:.75;stroke-linecap:butt;stroke-linejoin:miter;stroke-miterlimit:10;stroke-opacity:1;stroke-dasharray:none" d="M222.566 219.399c-2.22-.58-5.034-.957-7.346-.796-2.496.173-5.026.472-7.454 1.094-.514.13-2.34.532-2.684 1.298 1.884-6.909 9.976-12.105 19.677-12.105 9.699 0 17.792 5.195 19.675 12.105h-.018c-.364-.754-2.165-1.15-2.674-1.28-2.428-.622-4.958-.92-7.454-1.094-2.313-.16-5.126.216-7.347.796-.814.212-1.552.452-2.151.703a16.487 16.487 0 0 0-2.156-.704s-.058-.014-.065-.008" transform="matrix(4.16567 0 0 -4.16567 -786.286 1089.703)"/><path style="fill:#bda345;fill-opacity:1;fill-rule:nonzero;stroke:none" d="M225.115 225.2c-.155-.158-.294-.333-.299-.475h-.02c-.005.15-.16.336-.324.5v-5.158h.186c.044.017.09.035.132.053l.131-.053h.194v5.133" transform="matrix(4.16567 0 0 -4.16567 -786.286 1089.703)"/><path style="fill:none;stroke:#1f1917;stroke-width:.75;stroke-linecap:butt;stroke-linejoin:miter;stroke-miterlimit:10;stroke-opacity:1;stroke-dasharray:none" d="M225.115 225.2c-.155-.158-.294-.333-.299-.475h-.02c-.005.15-.16.336-.324.5v-5.158h.186c.044.017.09.035.132.053l.131-.053h.194v5.133z" transform="matrix(4.16567 0 0 -4.16567 -786.286 1089.703)"/><path style="fill:#d9261c;fill-opacity:1;fill-rule:nonzero;stroke:none" d="M224.874 228.895h-.14c-.71 0-1.302-.51-1.46-1.228-.207-.927.218-1.52.848-2.119.166-.156.665-.551.674-.823h.02c.01.272.508.667.674.823.63.599 1.055 1.192.85 2.12-.16.716-.753 1.227-1.462 1.227h-.14.136z" transform="matrix(4.16567 0 0 -4.16567 -786.286 1089.703)"/><path style="fill:none;stroke:#1f1917;stroke-width:.75;stroke-linecap:butt;stroke-linejoin:round;stroke-miterlimit:10;stroke-opacity:1;stroke-dasharray:none" d="M224.874 228.895h-.14c-.71 0-1.302-.51-1.46-1.228-.207-.927.218-1.52.848-2.119.166-.156.665-.551.674-.823h.02c.01.272.508.667.674.823.63.599 1.055 1.192.85 2.12-.16.716-.753 1.227-1.462 1.227h-.14" transform="matrix(4.16567 0 0 -4.16567 -786.286 1089.703)"/><path style="fill:#d9261c;fill-opacity:1;fill-rule:nonzero;stroke:none" d="M223.273 227.667c.107.483.412.866.815 1.07l.055.085s-1.765 1.43-3.973-.287c.105.049.96-.689 1.073-.77.585-.419 1.204-.589 1.932-.456l.059.092c.009.086.018.173.04.266" transform="matrix(4.16567 0 0 -4.16567 -786.286 1089.703)"/><path style="fill:none;stroke:#1f1917;stroke-width:.75;stroke-linecap:butt;stroke-linejoin:round;stroke-miterlimit:10;stroke-opacity:1;stroke-dasharray:none" d="M223.273 227.667c.107.483.412.866.815 1.07l.055.085s-1.765 1.43-3.973-.287c.105.049.96-.689 1.073-.77.585-.419 1.204-.589 1.932-.456l.059.092c.009.086.018.173.04.266z" transform="matrix(4.16567 0 0 -4.16567 -786.286 1089.703)"/><path style="fill:#d9261c;fill-opacity:1;fill-rule:nonzero;stroke:none" d="m225.362 228.838.022-.035c.473-.177.836-.598.955-1.136a2.15 2.15 0 0 0 .048-.369c.695-.106 1.29.063 1.854.467.113.081.968.819 1.073.77-2.208 1.718-3.952.303-3.952.303" transform="matrix(4.16567 0 0 -4.16567 -786.286 1089.703)"/><path style="fill:none;stroke:#1f1917;stroke-width:.75;stroke-linecap:butt;stroke-linejoin:round;stroke-miterlimit:10;stroke-opacity:1;stroke-dasharray:none" d="m225.362 228.838.022-.035c.473-.177.836-.598.955-1.136a2.15 2.15 0 0 0 .048-.369c.695-.106 1.29.063 1.854.467.113.081.968.819 1.073.77-2.208 1.718-3.952.303-3.952.303z" transform="matrix(4.16567 0 0 -4.16567 -786.286 1089.703)"/><path style="fill:#d9261c;fill-opacity:1;fill-rule:nonzero;stroke:none" d="M224.714 238.961s-4.538-6.93-.552-9.997h1.104c3.986 3.067-.553 9.997-.553 9.997h.001z" transform="matrix(4.16567 0 0 -4.16567 -786.286 1089.703)"/><path style="fill:none;stroke:#1f1917;stroke-width:.75;stroke-linecap:round;stroke-linejoin:round;stroke-miterlimit:10;stroke-opacity:1;stroke-dasharray:none" d="M224.714 238.961s-4.538-6.93-.552-9.997h1.104c3.986 3.067-.553 9.997-.553 9.997" transform="matrix(4.16567 0 0 -4.16567 -786.286 1089.703)"/><path style="fill:#d9261c;fill-opacity:1;fill-rule:nonzero;stroke:none" d="m223.729 237.143-1.908 1.68c.168-.148.098-1.126.101-1.348a13.915 13.915 0 0 0-.075-1.594c-.07-.7-.219-1.38-.328-2.074-.173-1.095-.041-2.24.564-3.19.444-.696 1.275-1.298 2.036-1.616-2.635 2.081-1.445 5.885-.39 8.142" transform="matrix(4.16567 0 0 -4.16567 -786.286 1089.703)"/><path style="fill:none;stroke:#1f1917;stroke-width:.75;stroke-linecap:butt;stroke-linejoin:round;stroke-miterlimit:10;stroke-opacity:1;stroke-dasharray:none" d="m223.729 237.143-1.908 1.68c.168-.148.098-1.126.101-1.348a13.915 13.915 0 0 0-.075-1.594c-.07-.7-.219-1.38-.328-2.074-.173-1.095-.041-2.24.564-3.19.444-.696 1.275-1.298 2.036-1.616-2.635 2.081-1.445 5.885-.39 8.142z" transform="matrix(4.16567 0 0 -4.16567 -786.286 1089.703)"/><path style="fill:#d9261c;fill-opacity:1;fill-rule:nonzero;stroke:none" d="M227.93 233.807c-.11.694-.259 1.373-.329 2.074-.053.53-.083 1.062-.074 1.594.003.222-.068 1.2.1 1.348l-1.922-1.693c1.056-2.266 2.242-6.076-.42-8.148.774.312 1.628.925 2.081 1.636.605.948.737 2.094.564 3.189" transform="matrix(4.16567 0 0 -4.16567 -786.286 1089.703)"/><path style="fill:none;stroke:#1f1917;stroke-width:.75;stroke-linecap:butt;stroke-linejoin:round;stroke-miterlimit:10;stroke-opacity:1;stroke-dasharray:none" d="M227.93 233.807c-.11.694-.259 1.373-.329 2.074-.053.53-.083 1.062-.074 1.594.003.222-.068 1.2.1 1.348l-1.922-1.693c1.056-2.266 2.242-6.076-.42-8.148.774.312 1.628.925 2.081 1.636.605.948.737 2.094.564 3.189z" transform="matrix(4.16567 0 0 -4.16567 -786.286 1089.703)"/><path style="fill:#d9261c;fill-opacity:1;fill-rule:nonzero;stroke:none" d="m225.558 229.104.102-.077a3.02 3.02 0 0 0 2.513.156l.072.023s.395 1.077 1.07 1.077c0 0-.896.475-2.077.156-.414-.553-1.053-1.032-1.68-1.335" transform="matrix(4.16567 0 0 -4.16567 -786.286 1089.703)"/><path style="fill:none;stroke:#1f1917;stroke-width:.75;stroke-linecap:butt;stroke-linejoin:round;stroke-miterlimit:10;stroke-opacity:1;stroke-dasharray:none" d="m225.558 229.104.102-.077a3.02 3.02 0 0 0 2.513.156l.072.023s.395 1.077 1.07 1.077c0 0-.896.475-2.077.156-.414-.553-1.053-1.032-1.68-1.335z" transform="matrix(4.16567 0 0 -4.16567 -786.286 1089.703)"/><path style="fill:#d9261c;fill-opacity:1;fill-rule:nonzero;stroke:none" d="m223.794 229.038.06.027-.026.07c-.605.303-1.215.768-1.615 1.301h-.006c-1.186.324-2.085-.153-2.085-.153.674 0 1.069-1.077 1.069-1.077l.084-.04a3.05 3.05 0 0 0 2.52-.128" transform="matrix(4.16567 0 0 -4.16567 -786.286 1089.703)"/><path style="fill:none;stroke:#1f1917;stroke-width:.75;stroke-linecap:butt;stroke-linejoin:round;stroke-miterlimit:10;stroke-opacity:1;stroke-dasharray:none" d="m223.794 229.038.06.027-.026.07c-.605.303-1.215.768-1.615 1.301h-.006c-1.186.324-2.085-.153-2.085-.153.674 0 1.069-1.077 1.069-1.077l.084-.04a3.05 3.05 0 0 0 2.52-.128z" transform="matrix(4.16567 0 0 -4.16567 -786.286 1089.703)"/><path style="fill:#d9261c;fill-opacity:1;fill-rule:nonzero;stroke:none" d="M223.718 237.12c.198.426.391.796.554 1.092l-.784 1.087-.613-1.35v-.054l.854-.752-.011-.023" transform="matrix(4.16567 0 0 -4.16567 -786.286 1089.703)"/><path style="fill:none;stroke:#1f1917;stroke-width:.75;stroke-linecap:butt;stroke-linejoin:miter;stroke-miterlimit:10;stroke-opacity:1;stroke-dasharray:none" d="M223.718 237.12c.198.426.391.796.554 1.092l-.784 1.087-.613-1.35v-.054l.854-.752-.011-.023z" transform="matrix(4.16567 0 0 -4.16567 -786.286 1089.703)"/><path style="fill:#d9261c;fill-opacity:1;fill-rule:nonzero;stroke:none" d="m225.705 237.13.938.826-.61 1.343-.797-1.105v-.13c.148-.273.315-.603.486-.97l-.017.036" transform="matrix(4.16567 0 0 -4.16567 -786.286 1089.703)"/><path style="fill:none;stroke:#1f1917;stroke-width:.75;stroke-linecap:butt;stroke-linejoin:miter;stroke-miterlimit:10;stroke-opacity:1;stroke-dasharray:none" d="m225.705 237.13.938.826-.61 1.343-.797-1.105v-.13c.148-.273.315-.603.486-.97l-.017.036z" transform="matrix(4.16567 0 0 -4.16567 -786.286 1089.703)"/></svg>